<svg width="0" height="0"><symbol xmlns="http://www.w3.org/2000/svg" id="arrow-right" fill="none" stroke="currentColor" stroke-width="1.5" viewBox="0 0 24 24"><path stroke-linecap="round" stroke-linejoin="round" d="m12.75 15 3-3m0 0-3-3m3 3h-7.5M21 12a9 9 0 1 1-18 0 9 9 0 0 1 18 0Z"/></symbol><symbol xmlns="http://www.w3.org/2000/svg" id="arrow-up" fill="none" stroke="currentColor" stroke-width="1.5" viewBox="0 0 24 24"><path stroke-linecap="round" stroke-linejoin="round" d="M4.5 10.5 12 3m0 0 7.5 7.5M12 3v18"/></symbol><symbol xmlns="http://www.w3.org/2000/svg" id="empty-icon" fill="none" viewBox="0 0 100 100"><circle cx="50" cy="50" r="40" stroke="currentColor" stroke-width="4"/><path stroke="currentColor" stroke-width="4" d="M70 60c0 5.523-4.477 10-10 10H40c-5.523 0-10-4.477-10-10V40c0-5.523 4.477-10 10-10h20c5.523 0 10 4.477 10 10v20Z"/><path stroke="currentColor" stroke-linecap="round" stroke-width="4" d="m40 40 20 20m0-20L40 60"/></symbol><symbol xmlns="http://www.w3.org/2000/svg" id="footer-stub" fill-rule="evenodd" clip-rule="evenodd" viewBox="0 0 24 24"><path d="m22.672 15.226-2.432.811.841 2.515c.33 1.019-.209 2.127-1.23 2.456-1.15.325-2.148-.321-2.463-1.226l-.84-2.518-5.013 1.677.84 2.517c.391 1.203-.434 2.542-1.831 2.542-.88 0-1.601-.564-1.86-1.314l-.842-2.516-2.431.809c-1.135.328-2.145-.317-2.463-1.229-.329-1.018.211-2.127 1.231-2.456l2.432-.809-1.621-4.823-2.432.808C1.203 12.854 0 11.88 0 10.631a1.93 1.93 0 0 1 1.327-1.846l2.433-.809-.842-2.515c-.33-1.02.211-2.129 1.232-2.458 1.02-.329 2.13.209 2.461 1.229l.842 2.515 5.011-1.677-.839-2.517C11.222 1.315 12.109 0 13.468 0c.819 0 1.585.509 1.85 1.326l.841 2.517 2.431-.81c1.02-.33 2.131.211 2.461 1.229.332 1.018-.21 2.126-1.23 2.456l-2.433.809 1.622 4.823 2.433-.809c1.242-.401 2.557.484 2.557 1.838a1.93 1.93 0 0 1-1.328 1.847M13.68 8.798l-5.01 1.675 1.619 4.828 5.011-1.674-1.62-4.829z"/></symbol><symbol xmlns="http://www.w3.org/2000/svg" id="menu-bars" fill="none" stroke="currentColor" stroke-width="1.5" viewBox="0 0 24 24"><path stroke-linecap="round" stroke-linejoin="round" d="M3.75 6.75h16.5M3.75 12H12m-8.25 5.25h16.5"/></symbol><symbol xmlns="http://www.w3.org/2000/svg" id="user" fill="none" stroke="currentColor" stroke-width="1.5" viewBox="0 0 24 24"><path stroke-linecap="round" stroke-linejoin="round" d="M17.982 18.725A7.488 7.488 0 0 0 12 15.75a7.488 7.488 0 0 0-5.982 2.975m11.963 0a9 9 0 1 0-11.963 0m11.963 0A8.966 8.966 0 0 1 12 21a8.966 8.966 0 0 1-5.982-2.275M15 9.75a3 3 0 1 1-6 0 3 3 0 0 1 6 0Z"/></symbol></svg>